<svg width="149" height="170" viewBox="0 0 149 170" fill="none" xmlns="http://www.w3.org/2000/svg">
<path d="M11.0003 3.5H11C6.85787 3.5 3.5 6.85786 3.5 11V60.5L3.5 89.5L3.5 89.501C3.50461 105.346 5.1222 116.077 9.38794 124.373C13.7017 132.762 20.4875 138.2 29.6346 143.961L29.7805 144.053L29.9348 144.13L58.4347 158.38L71.1354 164.731C73.2579 165.792 75.7576 165.786 77.8751 164.715L90.5799 158.288L118.08 144.376L118.206 144.312L118.327 144.238C127.105 138.866 133.991 133.282 138.47 124.71C142.911 116.213 144.76 105.22 144.5 89.4707L144.491 60.4989L144.476 11.0331C144.494 6.8789 141.131 3.5 136.976 3.5H136.975H11.0003Z" fill="url(#paint0_linear_509_23)" stroke="#F0E9DC" stroke-width="7"/>
<mask id="path-2-outside-1_509_23" maskUnits="userSpaceOnUse" x="35.3266" y="46.4141" width="112" height="118" fill="black">
<rect fill="white" x="35.3266" y="46.4141" width="112" height="118"/>
<path fill-rule="evenodd" clip-rule="evenodd" d="M131.843 128.556L120.979 108.382C120.807 108.062 120.822 107.675 121.017 107.369L139.801 78.0223C140.271 77.2879 139.641 76.3457 138.783 76.4987L105.157 82.4936C104.795 82.5582 104.427 82.4188 104.198 82.1307L82.5057 54.7935C81.9618 54.108 80.8621 54.4023 80.7332 55.2678L75.5693 89.9609C75.5168 90.3136 75.2804 90.6117 74.9489 90.7432L43.9579 103.038C43.1649 103.353 43.1047 104.452 43.8586 104.851L73.3875 120.493C73.6873 120.651 73.8861 120.951 73.9156 121.289L76.9499 156.051C77.0247 156.908 78.0753 157.277 78.6694 156.654L101.966 132.252C102.217 131.989 102.592 131.883 102.944 131.976L122.668 137.168C126.265 134.545 129.319 131.776 131.843 128.556Z"/>
</mask>
<path fill-rule="evenodd" clip-rule="evenodd" d="M131.843 128.556L120.979 108.382C120.807 108.062 120.822 107.675 121.017 107.369L139.801 78.0223C140.271 77.2879 139.641 76.3457 138.783 76.4987L105.157 82.4936C104.795 82.5582 104.427 82.4188 104.198 82.1307L82.5057 54.7935C81.9618 54.108 80.8621 54.4023 80.7332 55.2678L75.5693 89.9609C75.5168 90.3136 75.2804 90.6117 74.9489 90.7432L43.9579 103.038C43.1649 103.353 43.1047 104.452 43.8586 104.851L73.3875 120.493C73.6873 120.651 73.8861 120.951 73.9156 121.289L76.9499 156.051C77.0247 156.908 78.0753 157.277 78.6694 156.654L101.966 132.252C102.217 131.989 102.592 131.883 102.944 131.976L122.668 137.168C126.265 134.545 129.319 131.776 131.843 128.556Z" fill="url(#paint1_linear_509_23)"/>
<path d="M120.979 108.382L114.816 111.701L114.816 111.701L120.979 108.382ZM131.843 128.556L137.352 132.874L140.178 129.27L138.006 125.237L131.843 128.556ZM121.017 107.369L126.913 111.142L126.913 111.142L121.017 107.369ZM139.801 78.0223L145.696 81.7959L145.696 81.7959L139.801 78.0223ZM138.783 76.4987L140.011 83.3901L140.011 83.3901L138.783 76.4987ZM105.157 82.4936L106.385 89.3849L106.385 89.3849L105.157 82.4936ZM104.198 82.1307L98.7146 86.4818L98.7146 86.4819L104.198 82.1307ZM82.5057 54.7935L77.0223 59.1446L77.0223 59.1446L82.5057 54.7935ZM80.7332 55.2678L87.657 56.2984L87.657 56.2984L80.7332 55.2678ZM75.5693 89.9609L82.493 90.9915L75.5693 89.9609ZM74.9489 90.7432L72.3676 84.2365L72.3676 84.2365L74.9489 90.7432ZM43.9579 103.038L46.5392 109.545L46.5392 109.545L43.9579 103.038ZM43.8586 104.851L47.1351 98.6655L47.1351 98.6655L43.8586 104.851ZM73.3875 120.493L70.1109 126.678L70.1109 126.678L73.3875 120.493ZM73.9156 121.289L80.8891 120.681L80.8891 120.681L73.9156 121.289ZM76.9499 156.051L83.9234 155.442L83.9234 155.442L76.9499 156.051ZM78.6694 156.654L73.6063 151.821L73.6063 151.821L78.6694 156.654ZM101.966 132.252L96.9028 127.418L96.9028 127.418L101.966 132.252ZM102.944 131.976L104.726 125.206L104.726 125.206L102.944 131.976ZM122.668 137.168L120.886 143.938L124.104 144.785L126.793 142.824L122.668 137.168ZM114.816 111.701L125.68 131.875L138.006 125.237L127.142 105.063L114.816 111.701ZM115.122 103.595C113.556 106.041 113.439 109.144 114.816 111.701L127.142 105.063C128.175 106.981 128.087 109.308 126.913 111.142L115.122 103.595ZM133.905 74.2487L115.122 103.595L126.913 111.142L145.696 81.7959L133.905 74.2487ZM140.011 83.3901C134.861 84.3083 131.085 78.6551 133.905 74.2487L145.696 81.7959C149.457 75.9207 144.421 68.3831 137.554 69.6074L140.011 83.3901ZM106.385 89.3849L140.011 83.3901L137.554 69.6074L103.928 75.6023L106.385 89.3849ZM98.7146 86.4819C100.543 88.7864 103.489 89.9013 106.385 89.3849L103.928 75.6023C106.1 75.215 108.31 76.0512 109.681 77.7796L98.7146 86.4819ZM77.0223 59.1446L98.7146 86.4818L109.681 77.7796L87.9891 50.4423L77.0223 59.1446ZM87.657 56.2984C86.884 61.4913 80.2857 63.2572 77.0223 59.1446L87.9891 50.4423C83.6379 44.9588 74.8401 47.3134 73.8095 54.2373L87.657 56.2984ZM82.493 90.9915L87.657 56.2984L73.8095 54.2372L68.6456 88.9303L82.493 90.9915ZM77.5303 97.2498C80.1821 96.1978 82.073 93.8133 82.493 90.9915L68.6456 88.9303C68.9606 86.8139 70.3788 85.0255 72.3676 84.2365L77.5303 97.2498ZM46.5392 109.545L77.5303 97.2498L72.3676 84.2365L41.3765 96.5314L46.5392 109.545ZM47.1351 98.6655C51.6584 101.061 51.2972 107.657 46.5392 109.545L41.3765 96.5314C35.0325 99.0482 34.5509 107.842 40.582 111.037L47.1351 98.6655ZM76.6641 114.307L47.1351 98.6655L40.582 111.037L70.1109 126.678L76.6641 114.307ZM80.8891 120.681C80.6531 117.977 79.0624 115.577 76.6641 114.307L70.1109 126.678C68.3121 125.726 67.1191 123.926 66.9421 121.898L80.8891 120.681ZM83.9234 155.442L80.8891 120.681L66.9421 121.898L69.9764 156.659L83.9234 155.442ZM73.6063 151.821C77.1712 148.086 83.4745 150.299 83.9234 155.442L69.9764 156.659C70.575 163.517 78.9794 166.467 83.7326 161.488L73.6063 151.821ZM96.9028 127.418L73.6063 151.821L83.7326 161.488L107.029 137.086L96.9028 127.418ZM104.726 125.206C101.91 124.465 98.9136 125.312 96.9028 127.418L107.029 137.086C105.521 138.665 103.274 139.301 101.162 138.745L104.726 125.206ZM124.45 130.399L104.726 125.206L101.162 138.745L120.886 143.938L124.45 130.399ZM126.793 142.824C130.76 139.931 134.33 136.73 137.352 132.874L126.334 124.238C124.308 126.822 121.77 129.159 118.543 131.513L126.793 142.824Z" fill="#F0E9DC" mask="url(#path-2-outside-1_509_23)"/>
<defs>
<linearGradient id="paint0_linear_509_23" x1="9" y1="10.5" x2="129" y2="135.5" gradientUnits="userSpaceOnUse">
<stop stop-color="#A26B61"/>
<stop offset="0.697929" stop-color="#825D5B"/>
</linearGradient>
<linearGradient id="paint1_linear_509_23" x1="61" y1="66" x2="126.5" y2="133.5" gradientUnits="userSpaceOnUse">
<stop offset="0.140604" stop-color="#F3C696"/>
<stop offset="0.484374" stop-color="#F0B270"/>
</linearGradient>
</defs>
</svg>
