
<svg width="14" height="14" viewBox="0 0 14 14" fill="none" xmlns="http://www.w3.org/2000/svg">
<path d="M11.2191 1.48633C11.0961 1.53828 10.8883 1.73789 10.8199 1.86914C10.7789 1.9457 10.7625 2.03047 10.7598 2.15625C10.7598 2.36953 10.7871 2.42422 11.0961 2.8043C11.859 3.74492 12.343 4.85234 12.5426 6.09922C12.6082 6.52031 12.6082 7.55937 12.5426 7.99961C12.3621 9.2 11.9355 10.2117 11.2027 11.1852C10.9266 11.557 10.8828 11.6445 10.8828 11.8414C10.8828 12.0246 10.9539 12.1805 11.1016 12.3281C11.252 12.4785 11.4051 12.5469 11.5938 12.5469C11.8754 12.5469 12.0012 12.4512 12.3785 11.9453C12.9309 11.2098 13.3738 10.3293 13.6527 9.40234C14.4594 6.74727 13.8332 3.84609 11.9957 1.71328C11.8371 1.53008 11.6648 1.44531 11.4516 1.44531C11.3723 1.44805 11.2684 1.46445 11.2191 1.48633Z" fill="#6F5F5C"/>
<path d="M6.08677 2.21331C6.02662 2.24612 5.19263 2.92425 4.2356 3.71995L2.49107 5.1637L1.46841 5.17191L0.445759 5.18011L0.311774 5.26214C0.229743 5.31409 0.147712 5.39612 0.0957585 5.47816L0.0137273 5.61214L0.00552415 7.02308C5.5397e-05 8.27542 0.00278977 8.44769 0.0438054 8.55159C0.106696 8.71839 0.207868 8.82776 0.369196 8.90159C0.505915 8.96722 0.514118 8.96722 1.49302 8.96722H2.48013L4.21373 10.4055C5.16802 11.1957 6.00201 11.8739 6.07037 11.9149C6.38756 12.1035 6.83326 11.9313 6.96177 11.5676C7.01373 11.4227 7.01373 2.71097 6.96177 2.56331C6.91802 2.43753 6.82232 2.32269 6.69927 2.24066C6.55709 2.14495 6.23443 2.13128 6.08677 2.21331Z" fill="#6F5F5C"/>
<path d="M9.1821 3.63352C8.9278 3.6718 8.67351 3.90149 8.59694 4.16673C8.53132 4.39641 8.5696 4.5304 8.79655 4.85579C8.89773 5.00071 9.02624 5.20305 9.0864 5.30969C9.72624 6.46907 9.66062 7.99758 8.92507 9.0886C8.72546 9.38665 8.69538 9.46048 8.69538 9.64641C8.69538 9.84329 8.75554 9.98001 8.91687 10.1413C9.13562 10.3601 9.44187 10.4202 9.68249 10.2945C9.96413 10.1468 10.4235 9.38118 10.6614 8.66751C10.82 8.19173 10.8856 7.80071 10.902 7.23469C10.9239 6.53196 10.861 6.07259 10.6641 5.46282C10.4481 4.79563 9.87116 3.8386 9.59773 3.69915C9.47741 3.63626 9.32155 3.61165 9.1821 3.63352Z" fill="#6F5F5C"/>
</svg>
