<svg width="11" height="9" viewBox="0 0 11 9" fill="none" xmlns="http://www.w3.org/2000/svg">
<path d="M0.290003 1.21323C0.189027 1.23433 0.135316 1.26245 0.0708628 1.33101C-0.0129263 1.42241 -0.0129262 1.5648 0.0687144 1.66499C0.0987925 1.7019 0.807777 2.35405 1.64137 3.11167C2.47496 3.86929 3.15817 4.49507 3.15817 4.5021C3.15817 4.50913 2.47496 5.13491 1.64137 5.89253C0.807777 6.65015 0.100941 7.30054 0.0708628 7.33569C-0.00648094 7.42886 -0.0150747 7.53257 0.04723 7.63101C0.109535 7.72944 0.206214 7.78394 0.35016 7.798C0.412464 7.80327 0.960316 7.80679 1.56832 7.80327C2.61246 7.798 2.67907 7.79624 2.74137 7.7646C2.83161 7.72066 6.11871 4.73237 6.18102 4.63921C6.23688 4.55659 6.24332 4.47398 6.20035 4.3896C6.16383 4.31753 2.89391 1.33452 2.7693 1.25894L2.68121 1.2062L1.51891 1.20269C0.878675 1.20093 0.326527 1.2062 0.290003 1.21323Z" fill="#6F5F5C"/>
<path d="M5.01658 1.22263C4.9156 1.25075 4.79958 1.35271 4.78025 1.42829C4.77166 1.45642 4.77166 1.51442 4.78025 1.55661C4.79529 1.64978 4.66208 1.52146 6.51619 3.2072C7.29392 3.91208 7.92771 4.49392 7.92771 4.50095C7.92771 4.50798 7.24451 5.13376 6.41091 5.89138C5.57517 6.64899 4.86833 7.29587 4.83611 7.32927C4.79099 7.37849 4.78025 7.40837 4.78025 7.49802C4.78025 7.58942 4.78884 7.61579 4.84041 7.67028C4.96287 7.80212 4.89626 7.79685 6.24334 7.79685H7.44861L7.5238 7.7529C7.63552 7.68786 10.9355 4.67849 10.9699 4.61169C11.0086 4.53962 11.0086 4.46228 10.9699 4.39021C10.9355 4.32341 7.63552 1.31403 7.5238 1.24899L7.44861 1.20505L6.27556 1.20153C5.30447 1.19802 5.08748 1.20153 5.01658 1.22263Z" fill="#6F5F5C"/>
</svg>
