<svg width="41" height="47" viewBox="0 0 41 47" fill="none" xmlns="http://www.w3.org/2000/svg">
<path d="M17.546 17.8363H23.6418C24.2831 17.8363 24.803 18.3561 24.803 18.9974V22.6259C24.803 23.2671 24.2831 23.787 23.6418 23.787H17.546C16.9047 23.787 16.3848 23.2671 16.3848 22.6259V18.9974C16.3848 18.3561 16.9047 17.8363 17.546 17.8363Z" fill="#AB1E24"/>
<path d="M32.7857 39.971C37.7589 36.9275 40.0476 33.9619 39.8975 24.9481H25.9641C25.3228 24.9481 24.803 25.468 24.803 26.1092V44.0093L32.7857 39.971Z" fill="#AB1E24"/>
<path d="M1 24.9481C1.00265 34.0639 2.88459 36.6048 8.11187 39.8975L16.3848 44.034V26.1092C16.3848 25.468 15.865 24.9481 15.2237 24.9481H1Z" fill="#AB1E24"/>
<path d="M39.8949 16.53L39.8905 2.16814C39.8944 1.52414 39.3734 1 38.7294 1L24.803 1.00113V15.3689C24.803 16.0101 25.3228 16.53 25.9641 16.53H39.8949Z" fill="#AB1E24"/>
<path fill-rule="evenodd" clip-rule="evenodd" d="M39.8975 24.9481L39.8949 16.53H25.9641C25.3228 16.53 24.803 16.0101 24.803 15.3689V1.00113L38.7294 1H2.16112L16.3848 1.00113V15.3689C16.3848 16.0101 15.865 16.53 15.2237 16.53H1V24.9481H15.2237C15.865 24.9481 16.3848 25.468 16.3848 26.1092V44.034L20.0716 45.8774C20.4002 46.0417 20.7872 46.0408 21.115 45.875L24.803 44.0093V26.1092C24.803 25.468 25.3228 24.9481 25.9641 24.9481H39.8975ZM23.6418 17.8363H17.546C16.9047 17.8363 16.3848 18.3561 16.3848 18.9974V22.6259C16.3848 23.2671 16.9047 23.787 17.546 23.787H23.6418C24.2831 23.787 24.803 23.2671 24.803 22.6259V18.9974C24.803 18.3561 24.2831 17.8363 23.6418 17.8363Z" fill="white"/>
<path d="M1 2.16112V16.53H15.2237C15.865 16.53 16.3848 16.0101 16.3848 15.3689V1.00113L2.16112 1C1.51985 1 1 1.51985 1 2.16112Z" fill="#AB1E24"/>
<path d="M39.8905 2.16814L39.6405 2.16663L39.6405 2.16821L39.8905 2.16814ZM1 24.9481L0.75 24.9481L0.75 24.9482L1 24.9481ZM20.0716 45.8774L20.1834 45.6538L20.1834 45.6538L20.0716 45.8774ZM8.11187 39.8975L7.97862 40.1091L7.98904 40.1156L8.00006 40.1212L8.11187 39.8975ZM32.7857 39.971L32.8985 40.1941L32.9075 40.1895L32.9162 40.1842L32.7857 39.971ZM21.115 45.875L21.2279 46.098L21.2279 46.098L21.115 45.875ZM16.3848 1.00113H16.6348V0.751149L16.3849 0.751129L16.3848 1.00113ZM24.803 1.00113L24.8029 0.751129L24.553 0.751149V1.00113H24.803ZM39.8949 16.53L40.1449 16.5299L40.1449 16.5299L39.8949 16.53ZM39.6405 2.16821L39.6475 24.9482L40.1475 24.948L40.1405 2.16806L39.6405 2.16821ZM1.25 24.9481V2.16112H0.75V24.9481H1.25ZM8.24511 39.686C5.6417 38.0461 3.91176 36.6172 2.81903 34.4922C1.72286 32.3604 1.25132 29.4957 1.25 24.948L0.75 24.9482C0.751328 29.5163 1.22208 32.4799 2.37437 34.7208C3.53008 36.9683 5.35476 38.4563 7.97862 40.1091L8.24511 39.686ZM39.6476 24.9523C39.7223 29.4421 39.1881 32.3881 38.0413 34.5826C36.897 36.7722 35.1266 38.2453 32.6552 39.7577L32.9162 40.1842C35.418 38.6532 37.2785 37.1218 38.4844 34.8142C39.6877 32.5117 40.2228 29.4679 40.1475 24.944L39.6476 24.9523ZM19.9598 46.101C20.3592 46.3007 20.8294 46.2996 21.2279 46.098L21.0022 45.6519C20.7449 45.782 20.4413 45.7827 20.1834 45.6538L19.9598 46.101ZM40.1405 2.16965C40.1452 1.38699 39.5121 0.75 38.7294 0.75V1.25C39.2347 1.25 39.6435 1.66129 39.6405 2.16663L40.1405 2.16965ZM1.25 2.16112C1.25 1.65792 1.65792 1.25 2.16112 1.25V0.75C1.38178 0.75 0.75 1.38178 0.75 2.16112H1.25ZM1 25.1981H15.2237V24.6981H1V25.1981ZM25.9641 25.1981H39.8975V24.6981H25.9641V25.1981ZM24.553 1.00113V15.3689H25.053V1.00113H24.553ZM25.9641 16.78H39.8949V16.28H25.9641V16.78ZM17.546 18.0863H23.6418V17.5863H17.546V18.0863ZM24.553 18.9974V22.6259H25.053V18.9974H24.553ZM23.6418 23.537H17.546V24.037H23.6418V23.537ZM16.6348 22.6259V18.9974H16.1348V22.6259H16.6348ZM24.553 22.6259C24.553 23.1291 24.145 23.537 23.6418 23.537V24.037C24.4212 24.037 25.053 23.4052 25.053 22.6259H24.553ZM23.6418 18.0863C24.145 18.0863 24.553 18.4942 24.553 18.9974H25.053C25.053 18.218 24.4212 17.5863 23.6418 17.5863V18.0863ZM16.1348 15.3689C16.1348 15.8721 15.7269 16.28 15.2237 16.28V16.78C16.0031 16.78 16.6348 16.1482 16.6348 15.3689H16.1348ZM17.546 17.5863C16.7666 17.5863 16.1348 18.218 16.1348 18.9974H16.6348C16.6348 18.4942 17.0428 18.0863 17.546 18.0863V17.5863ZM24.553 15.3689C24.553 16.1482 25.1847 16.78 25.9641 16.78V16.28C25.4609 16.28 25.053 15.8721 25.053 15.3689H24.553ZM17.546 23.537C17.0428 23.537 16.6348 23.1291 16.6348 22.6259H16.1348C16.1348 23.4052 16.7666 24.037 17.546 24.037V23.537ZM15.2237 25.1981C15.7269 25.1981 16.1348 25.606 16.1348 26.1092H16.6348C16.6348 25.3299 16.0031 24.6981 15.2237 24.6981V25.1981ZM25.9641 24.6981C25.1847 24.6981 24.553 25.3299 24.553 26.1092H25.053C25.053 25.606 25.4609 25.1981 25.9641 25.1981V24.6981ZM2.16112 1.25H38.7294V0.75H2.16112V1.25ZM0.75 2.16112V16.53H1.25V2.16112H0.75ZM0.75 16.53V24.9481H1.25V16.53H0.75ZM16.1348 26.1092V44.034H16.6348V26.1092H16.1348ZM16.273 44.2576L19.9598 46.101L20.1834 45.6538L16.4966 43.8104L16.273 44.2576ZM21.2279 46.098L24.9158 44.2324L24.6901 43.7862L21.0022 45.6519L21.2279 46.098ZM24.9158 44.2324L32.8985 40.1941L32.6728 39.7479L24.6901 43.7862L24.9158 44.2324ZM24.553 26.1092V44.0093H25.053V26.1092H24.553ZM24.553 44.0093V44.1066H25.053V44.0093H24.553ZM16.1348 44.034V44.1066H16.6348V44.034H16.1348ZM16.4966 43.8104L8.22367 39.6739L8.00006 40.1212L16.273 44.2576L16.4966 43.8104ZM15.2237 16.28H1V16.78H15.2237V16.28ZM16.1348 1.00113V15.3689H16.6348V1.00113H16.1348ZM16.3849 0.751129L2.16114 0.75L2.1611 1.25L16.3848 1.25113L16.3849 0.751129ZM24.803 1.25113L38.7294 1.25L38.7294 0.75L24.8029 0.751129L24.803 1.25113ZM39.6449 16.5301L39.6475 24.9482L40.1475 24.948L40.1449 16.5299L39.6449 16.5301ZM40.1449 16.5299L40.1405 2.16806L39.6405 2.16821L39.6449 16.5301L40.1449 16.5299Z" fill="black"/>
<path d="M7.50682 9.62295L7.81956 7.28317L9.17233 9.12026C9.27958 9.26591 9.46009 9.34393 9.64413 9.30937L11.7494 8.91405C11.7492 8.91476 11.7487 8.91573 11.748 8.91699L10.5595 10.9309C10.4712 11.0806 10.4653 11.2668 10.543 11.4217L11.6147 13.5579L9.5141 12.9511C9.33436 12.8992 9.14673 12.9591 9.02621 13.0954L7.58993 14.7209L7.3874 12.3397C7.37378 12.1796 7.28526 12.0298 7.14092 11.9467L5.25048 10.8586C5.25045 10.8585 5.25042 10.8584 5.2504 10.8583C5.25009 10.8567 5.24992 10.8548 5.25004 10.8526C5.25011 10.8512 5.25029 10.85 5.2505 10.849L7.21136 10.0171C7.37625 9.9471 7.48406 9.79321 7.50682 9.62295Z" fill="#169ACD" stroke="white" stroke-width="0.5"/>
<path d="M30.5068 9.62295L30.8196 7.28317L32.1723 9.12026C32.2796 9.26591 32.4601 9.34393 32.6441 9.30937L34.7494 8.91405C34.7492 8.91476 34.7487 8.91573 34.748 8.91699L33.5595 10.9309C33.4712 11.0806 33.4653 11.2668 33.543 11.4217L34.6147 13.5579L32.5141 12.9511C32.3344 12.8992 32.1467 12.9591 32.0262 13.0954L30.5899 14.7209L30.3874 12.3397C30.3738 12.1796 30.2853 12.0298 30.1409 11.9467L28.2505 10.8586C28.2504 10.8585 28.2504 10.8584 28.2504 10.8583C28.2501 10.8567 28.2499 10.8548 28.25 10.8526C28.2501 10.8512 28.2503 10.85 28.2505 10.849L30.2114 10.0171C30.3762 9.9471 30.4841 9.79321 30.5068 9.62295Z" fill="#169ACD" stroke="white" stroke-width="0.5"/>
<path d="M30.5068 32.623L30.8196 30.2832L32.1723 32.1203C32.2796 32.2659 32.4601 32.3439 32.6441 32.3094L34.7494 31.9141C34.7492 31.9148 34.7487 31.9157 34.748 31.917L33.5595 33.9309C33.4712 34.0806 33.4653 34.2668 33.543 34.4217L34.6147 36.5579L32.5141 35.9511C32.3344 35.8992 32.1467 35.9591 32.0262 36.0954L30.5899 37.7209L30.3874 35.3397C30.3738 35.1796 30.2853 35.0298 30.1409 34.9467L28.2505 33.8586C28.2504 33.8585 28.2504 33.8584 28.2504 33.8583C28.2501 33.8567 28.2499 33.8548 28.25 33.8526C28.2501 33.8512 28.2503 33.85 28.2505 33.849L30.2114 33.0171C30.3762 32.9471 30.4841 32.7932 30.5068 32.623Z" fill="#169ACD" stroke="white" stroke-width="0.5"/>
<path d="M7.50682 32.623L7.81956 30.2832L9.17233 32.1203C9.27958 32.2659 9.46009 32.3439 9.64413 32.3094L11.7494 31.9141C11.7492 31.9148 11.7487 31.9157 11.748 31.917L10.5595 33.9309C10.4712 34.0806 10.4653 34.2668 10.543 34.4217L11.6147 36.5579L9.5141 35.9511C9.33436 35.8992 9.14673 35.9591 9.02621 36.0954L7.58993 37.7209L7.3874 35.3397C7.37378 35.1796 7.28526 35.0298 7.14092 34.9467L5.25048 33.8586C5.25045 33.8585 5.25042 33.8584 5.2504 33.8583C5.25009 33.8567 5.24992 33.8548 5.25004 33.8526C5.25011 33.8512 5.25029 33.85 5.2505 33.849L7.21136 33.0171C7.37625 32.9471 7.48406 32.7932 7.50682 32.623Z" fill="#169ACD" stroke="white" stroke-width="0.5"/>
<path d="M11.1172 4.31199L11.2379 3.25853L11.7476 4.06607C11.7976 4.14526 11.8934 4.2023 12.0027 4.17836L12.8286 3.99742L12.3411 4.96129C12.3015 5.03957 12.2992 5.13414 12.3335 5.21406L12.7699 6.22889L11.9528 5.95349C11.847 5.91785 11.7445 5.96302 11.6862 6.03993L11.1451 6.75441L11.066 5.66956C11.0603 5.59076 11.0225 5.5074 10.9477 5.45715L10.1616 4.92927L10.9724 4.52789C11.061 4.48403 11.1076 4.39538 11.1172 4.31199ZM12.7929 6.28219C12.793 6.28246 12.7928 6.28256 12.7928 6.28217L12.7929 6.28219Z" fill="#169ACD" stroke="white" stroke-width="0.3"/>
<path d="M34.1172 4.31199L34.2379 3.25853L34.7476 4.06607C34.7976 4.14526 34.8934 4.2023 35.0027 4.17836L35.8286 3.99742L35.3411 4.96129C35.3015 5.03957 35.2992 5.13414 35.3335 5.21406L35.7699 6.22889L34.9528 5.95349C34.847 5.91785 34.7445 5.96302 34.6862 6.03993L34.1451 6.75441L34.066 5.66956C34.0603 5.59076 34.0225 5.5074 33.9477 5.45715L33.1616 4.92927L33.9724 4.52789C34.061 4.48403 34.1076 4.39538 34.1172 4.31199ZM35.7929 6.28219C35.793 6.28246 35.7928 6.28256 35.7928 6.28217L35.7929 6.28219Z" fill="#169ACD" stroke="white" stroke-width="0.3"/>
<path d="M34.1172 27.312L34.2379 26.2585L34.7476 27.0661C34.7976 27.1453 34.8934 27.2023 35.0027 27.1784L35.8286 26.9974L35.3411 27.9613C35.3015 28.0396 35.2992 28.1341 35.3335 28.2141L35.7699 29.2289L34.9528 28.9535C34.847 28.9179 34.7445 28.963 34.6862 29.0399L34.1451 29.7544L34.066 28.6696C34.0603 28.5908 34.0225 28.5074 33.9477 28.4572L33.1616 27.9293L33.9724 27.5279C34.061 27.484 34.1076 27.3954 34.1172 27.312ZM35.7929 29.2822C35.793 29.2825 35.7928 29.2826 35.7928 29.2822L35.7929 29.2822Z" fill="#169ACD" stroke="white" stroke-width="0.3"/>
<path d="M11.1172 27.312L11.2379 26.2585L11.7476 27.0661C11.7976 27.1453 11.8934 27.2023 12.0027 27.1784L12.8286 26.9974L12.3411 27.9613C12.3015 28.0396 12.2992 28.1341 12.3335 28.2141L12.7699 29.2289L11.9528 28.9535C11.847 28.9179 11.7445 28.963 11.6862 29.0399L11.1451 29.7544L11.066 28.6696C11.0603 28.5908 11.0225 28.5074 10.9477 28.4572L10.1616 27.9293L10.9724 27.5279C11.061 27.484 11.1076 27.3954 11.1172 27.312ZM12.7929 29.2822C12.793 29.2825 12.7928 29.2826 12.7928 29.2822L12.7929 29.2822Z" fill="#169ACD" stroke="white" stroke-width="0.3"/>
</svg>
